<?xml version="1.0" encoding="utf-8"?>
<!-- Generator: Adobe Illustrator 24.0.2, SVG Export Plug-In . SVG Version: 6.00 Build 0)  -->
<svg version="1.1" id="Layer_1" xmlns="http://www.w3.org/2000/svg" xmlns:xlink="http://www.w3.org/1999/xlink" x="0px" y="0px"
	 viewBox="0 0 512 512" style="enable-background:new 0 0 512 512;" xml:space="preserve">
<style type="text/css">
	.st0{fill:#FF5E6C;}
</style>
<path class="st0" d="M444.8,40.8c-8.4-8.4-22-8.4-30.4,0c-0.8,0.8-44.8,59.2-44.8,59.2L259.2,210.4c-33.6-16.8-74-10.4-100.8,15.6
	l-11.6,11.6c-63.6,1.2-114,54-112.4,117.6v0.4C36,422,90,476,156.4,477.6h2.4c62.8,0.4,114.4-49.6,115.6-112.4l11.6-11.6
	c26-26.8,32.4-67.2,15.6-100.8l110.4-110l56.8-42.8c9.6-7.2,11.2-20.8,4.4-30.4C472.4,68.4,444.8,40.8,444.8,40.8z M351.2,183.6
	l-22.8-22.8l20-20l22.8,22.8L351.2,183.6z M321.2,213.6l-22.8-22.8l20-20l22.8,22.8L321.2,213.6z M258,276.8L235.2,254l53.2-53.2
	l22.8,22.8L258,276.8z M276.4,344l-13.6,13.6c-1.2,1.2-2,3.2-2,4.8c0,56-45.2,101.2-100.8,101.2c-1.2,0-2,0-3.2,0
	C97.6,462,50,414.4,48.4,355.2c-1.6-55.6,42.4-102.4,98.4-103.6h3.2c2,0,3.6-0.8,4.8-2l13.6-13.6c21.2-20.8,53.2-26.4,80.4-14.8
	l-28,28c-2.8,2.8-2.8,7.2,0,10l32.8,32.8c2.8,2.8,7.2,2.8,10,0l28-28C302.8,290.8,296.8,322.4,276.4,344L276.4,344z M381.6,153.2
	l-22.8-22.8l16-16l22.8,22.8L381.6,153.2z M460.4,88.4L408,128l-24-24l39.6-52.4c1.2-1.6,3.2-2.8,5.6-2.8c2,0,4.4,0.8,6,2.4
	l26.4,26.4c2.8,2.8,2.8,7.6,0,10.8C461.2,88,460.8,88,460.4,88.4z"/>
<g>
	<g>
		<path class="st0" d="M160.9,290.5c-30.44,0-55.19,24.76-55.19,55.19c0,30.43,24.76,55.19,55.19,55.19s55.19-24.76,55.19-55.19
			C216.1,315.26,191.34,290.5,160.9,290.5z M182.85,347.62l-32.2,20.7c-0.38,0.24-0.81,0.37-1.24,0.37c-0.38,0-0.76-0.09-1.1-0.28
			c-0.74-0.4-1.2-1.18-1.2-2.02v-41.4c0-0.84,0.46-1.61,1.2-2.02c0.73-0.4,1.64-0.38,2.34,0.09l32.2,20.7
			c0.66,0.42,1.06,1.15,1.06,1.93S183.5,347.2,182.85,347.62z"/>
	</g>
</g>
</svg>
